<svg width="35" height="35" viewBox="0 0 35 35" fill="none" xmlns="http://www.w3.org/2000/svg">
<path d="M0 0H35V34.5364L17.5 27.7716L0 34.5364V0Z" fill="url(#paint0_linear_249_7)"/>
<path d="M3.6627 14.1538V12.4178L3.88729 13.0126L2.01773 9.90481H3.06177L4.49429 12.2903H3.89336L5.33195 9.90481H6.29708L4.42752 13.0126L4.64604 12.4178V14.1538H3.6627ZM5.88925 14.1538L7.78309 9.90481H8.75429L10.6542 14.1538H9.6223L8.06838 10.4025H8.45686L6.89687 14.1538H5.88925ZM6.83617 13.2433L7.09718 12.4967H9.28238L9.54946 13.2433H6.83617ZM12.4911 14.2266C12.1512 14.2266 11.8255 14.1821 11.5139 14.0931C11.2023 14 10.9514 13.8807 10.7612 13.735L11.095 12.9944C11.2771 13.1239 11.4916 13.2312 11.7385 13.3161C11.9893 13.3971 12.2423 13.4375 12.4972 13.4375C12.6914 13.4375 12.8472 13.4193 12.9646 13.3829C13.086 13.3425 13.175 13.2878 13.2317 13.219C13.2883 13.1502 13.3167 13.0713 13.3167 12.9823C13.3167 12.869 13.2721 12.78 13.1831 12.7152C13.0941 12.6464 12.9767 12.5918 12.8311 12.5513C12.6854 12.5068 12.5235 12.4663 12.3455 12.4299C12.1714 12.3895 11.9954 12.3409 11.8174 12.2842C11.6434 12.2276 11.4835 12.1548 11.3378 12.0657C11.1922 11.9767 11.0728 11.8593 10.9797 11.7137C10.8907 11.568 10.8462 11.3818 10.8462 11.1552C10.8462 10.9124 10.9109 10.6919 11.0404 10.4936C11.1739 10.2913 11.3722 10.1314 11.6353 10.0141C11.9023 9.89267 12.2362 9.83197 12.6368 9.83197C12.9039 9.83197 13.1669 9.86434 13.4259 9.92909C13.6849 9.98979 13.9135 10.0829 14.1118 10.2083L13.8083 10.9549C13.61 10.8416 13.4118 10.7587 13.2135 10.706C13.0152 10.6494 12.8209 10.6211 12.6307 10.6211C12.4406 10.6211 12.2848 10.6433 12.1634 10.6878C12.042 10.7324 11.955 10.791 11.9023 10.8639C11.8497 10.9327 11.8234 11.0136 11.8234 11.1067C11.8234 11.2159 11.8679 11.305 11.957 11.3737C12.046 11.4385 12.1634 11.4911 12.309 11.5316C12.4547 11.572 12.6146 11.6125 12.7886 11.653C12.9666 11.6934 13.1426 11.74 13.3167 11.7926C13.4947 11.8452 13.6566 11.916 13.8023 12.005C13.9479 12.0941 14.0653 12.2114 14.1543 12.3571C14.2474 12.5028 14.2939 12.6869 14.2939 12.9095C14.2939 13.1482 14.2272 13.3667 14.0936 13.565C13.9601 13.7633 13.7598 13.9231 13.4927 14.0445C13.2297 14.1659 12.8958 14.2266 12.4911 14.2266ZM15.8703 11.6165H17.9159V12.3814H15.8703V11.6165ZM15.9431 13.3647H18.2558V14.1538H14.9658V9.90481H18.1769V10.6939H15.9431V13.3647ZM19.0382 14.1538V9.90481H19.8516L22.3585 12.9641H21.9639V9.90481H22.9351V14.1538H22.1278L19.6148 11.0945H20.0094V14.1538H19.0382ZM24.8206 13.1826L24.766 12.0475L26.7994 9.90481H27.892L26.0589 11.8776L25.5126 12.4603L24.8206 13.1826ZM23.9404 14.1538V9.90481H24.9177V14.1538H23.9404ZM26.848 14.1538L25.3365 12.3025L25.98 11.6044L27.9952 14.1538H26.848ZM30.3433 14.2266C30.0075 14.2266 29.6959 14.172 29.4086 14.0628C29.1253 13.9535 28.8784 13.7997 28.668 13.6014C28.4616 13.4032 28.2998 13.1705 28.1824 12.9034C28.0691 12.6363 28.0125 12.3449 28.0125 12.0293C28.0125 11.7137 28.0691 11.4223 28.1824 11.1552C28.2998 10.8881 28.4637 10.6555 28.6741 10.4572C28.8845 10.2589 29.1314 10.1051 29.4146 9.99586C29.6979 9.8866 30.0054 9.83197 30.3373 9.83197C30.6731 9.83197 30.9807 9.8866 31.2599 9.99586C31.5432 10.1051 31.788 10.2589 31.9944 10.4572C32.2048 10.6555 32.3687 10.8881 32.486 11.1552C32.6034 11.4183 32.6621 11.7096 32.6621 12.0293C32.6621 12.3449 32.6034 12.6383 32.486 12.9095C32.3687 13.1765 32.2048 13.4092 31.9944 13.6075C31.788 13.8017 31.5432 13.9535 31.2599 14.0628C30.9807 14.172 30.6752 14.2266 30.3433 14.2266ZM30.3373 13.389C30.5275 13.389 30.7015 13.3566 30.8593 13.2919C31.0212 13.2271 31.1628 13.134 31.2842 13.0126C31.4056 12.8912 31.4987 12.7476 31.5634 12.5817C31.6322 12.4158 31.6666 12.2316 31.6666 12.0293C31.6666 11.827 31.6322 11.6429 31.5634 11.4769C31.4987 11.311 31.4056 11.1674 31.2842 11.046C31.1668 10.9246 31.0272 10.8315 30.8654 10.7667C30.7035 10.702 30.5275 10.6696 30.3373 10.6696C30.1471 10.6696 29.971 10.702 29.8092 10.7667C29.6514 10.8315 29.5117 10.9246 29.3903 11.046C29.2689 11.1674 29.1739 11.311 29.1051 11.4769C29.0403 11.6429 29.0079 11.827 29.0079 12.0293C29.0079 12.2276 29.0403 12.4117 29.1051 12.5817C29.1739 12.7476 29.2669 12.8912 29.3843 13.0126C29.5057 13.134 29.6473 13.2271 29.8092 13.2919C29.971 13.3566 30.1471 13.389 30.3373 13.389ZM11.1812 20.1538L9.79115 15.9048H10.8109L12.0188 19.6682H11.509L12.7715 15.9048H13.682L14.896 19.6682H14.4043L15.6426 15.9048H16.5835L15.1934 20.1538H14.1373L13.0629 16.8517H13.3421L12.2374 20.1538H11.1812ZM18.0369 17.6165H20.0825V18.3814H18.0369V17.6165ZM18.1097 19.3647H20.4224V20.1538H17.1324V15.9048H20.3435V16.6939H18.1097V19.3647ZM21.2048 20.1538V15.9048H23.2807C23.8149 15.9048 24.2155 16.006 24.4826 16.2083C24.7537 16.4106 24.8893 16.6777 24.8893 17.0095C24.8893 17.2321 24.8346 17.4264 24.7254 17.5923C24.6161 17.7541 24.4664 17.8796 24.2762 17.9686C24.086 18.0576 23.8675 18.1021 23.6206 18.1021L23.736 17.8533C24.0031 17.8533 24.2398 17.8978 24.4462 17.9868C24.6525 18.0718 24.8124 18.1993 24.9257 18.3692C25.0431 18.5392 25.1017 18.7476 25.1017 18.9944C25.1017 19.3586 24.9581 19.6439 24.6708 19.8503C24.3834 20.0526 23.9606 20.1538 23.4021 20.1538H21.2048ZM22.1821 19.4133H23.3293C23.5842 19.4133 23.7764 19.3728 23.9059 19.2919C24.0395 19.2069 24.1062 19.0733 24.1062 18.8912C24.1062 18.7132 24.0395 18.5817 23.9059 18.4967C23.7764 18.4077 23.5842 18.3632 23.3293 18.3632H22.1092V17.6469H23.1593C23.3981 17.6469 23.5802 17.6064 23.7056 17.5255C23.8351 17.4405 23.8999 17.313 23.8999 17.1431C23.8999 16.9772 23.8351 16.8538 23.7056 16.7728C23.5802 16.6878 23.3981 16.6453 23.1593 16.6453H22.1821V19.4133Z" fill="url(#paint1_linear_249_7)"/>
<defs>
<linearGradient id="paint0_linear_249_7" x1="23.8742" y1="33.1641" x2="-12.1183" y2="-8.53917" gradientUnits="userSpaceOnUse">
<stop stop-color="#FAFAFA"/>
<stop offset="1" stop-color="#D0D0D0"/>
</linearGradient>
<linearGradient id="paint1_linear_249_7" x1="17.5" y1="9.15381" x2="25.479" y2="21.5841" gradientUnits="userSpaceOnUse">
<stop stop-color="#0F0F0F"/>
<stop offset="1" stop-color="#323232"/>
</linearGradient>
</defs>
</svg>
