<svg width="39" height="43" viewBox="0 0 39 43" fill="none" xmlns="http://www.w3.org/2000/svg">
<g clip-path="url(#clip0_113_6)">
<path d="M38.0405 4.92218C37.8984 4.77967 37.7088 4.68467 37.5192 4.68467H30.3159V1.35961C30.3159 0.979601 29.9841 0.647095 29.605 0.647095H9.36931C8.99019 0.647095 8.65845 0.979601 8.65845 1.35961V4.68467H1.26554C1.07598 4.68467 0.886421 4.77967 0.74425 4.92218C0.602078 5.06468 0.554688 5.25468 0.554688 5.44469C0.554688 5.58719 0.696859 8.62725 1.78684 12.1423C3.30333 16.8449 5.86242 20.17 9.27453 21.69C10.4119 25.4901 13.0184 28.4826 16.2883 29.6701V29.8126C16.2883 33.7552 13.3027 36.8903 9.46409 36.8903C9.08497 36.8903 8.75323 37.2228 8.75323 37.6028V41.6404C8.75323 42.0204 9.08497 42.3529 9.46409 42.3529H29.605C29.9841 42.3529 30.3159 42.0204 30.3159 41.6404V37.6028C30.3159 37.2228 29.9841 36.8903 29.605 36.8903C25.719 36.8903 22.5439 33.7077 22.5439 29.8126V29.7176C25.956 28.5301 28.6098 25.4901 29.7472 21.595C33.0171 20.0275 35.5288 16.7499 36.9979 12.1423C38.1353 8.62725 38.2301 5.53969 38.2301 5.44469C38.2775 5.25468 38.1827 5.06468 38.0405 4.92218ZM2.02379 6.1097H8.65845V17.5099C8.65845 18.3174 8.70584 19.0774 8.84801 19.8375C3.4455 16.6074 2.26074 8.57975 2.02379 6.1097ZM28.8942 38.2678V40.8804H10.1749V38.2678C14.3453 37.9353 17.5679 34.4677 17.6626 30.0502C18.2313 30.1452 18.8474 30.2402 19.4635 30.2402C20.0322 30.2402 20.6008 30.1927 21.1221 30.0977C21.3117 34.4202 24.6764 37.9353 28.8942 38.2678ZM21.3591 28.6251C20.743 28.7676 20.1269 28.8626 19.5109 28.8626C18.8 28.8626 18.0891 28.7676 17.4257 28.5776C17.2835 28.5301 17.0466 28.4351 16.9518 28.4351C13.0184 27.1051 10.0802 22.735 10.0802 17.5574V2.11962H28.8942V4.96968V5.87219V17.5574C28.8942 22.735 25.956 27.1051 21.9752 28.4351L21.3591 28.6251ZM30.1737 19.7425C30.2685 19.0299 30.3633 18.2699 30.3633 17.5099V6.1097H36.8084C36.5714 8.57975 35.4341 16.3699 30.1737 19.7425Z" fill="#3E3E3E"/>
<path d="M26.3351 10.6223L22.449 10.0523L20.6956 6.48972C20.506 6.10971 20.0795 5.82471 19.653 5.82471C19.2265 5.82471 18.8 6.06221 18.6104 6.48972L16.857 10.0523L12.971 10.6223C12.5444 10.6698 12.1653 11.0023 12.0231 11.4298C11.881 11.8573 11.9758 12.3323 12.3075 12.6173L15.1509 15.3724L14.4874 19.2675C14.3927 19.695 14.5822 20.1225 14.9614 20.4075C15.1509 20.55 15.3879 20.645 15.6722 20.645C15.8618 20.645 16.0513 20.5975 16.1935 20.5025L19.7952 18.6975L23.2073 20.5025C23.5864 20.6925 24.0603 20.6925 24.4394 20.4075C24.8186 20.1225 24.9607 19.695 24.9133 19.2675L24.2499 15.3724L27.0933 12.6173C27.425 12.2848 27.5198 11.8573 27.3776 11.4298C27.1407 11.0023 26.809 10.6698 26.3351 10.6223ZM22.9229 14.6124C22.7334 14.7549 22.686 14.9924 22.7334 15.2299L23.3969 18.9825L20.1269 17.2724C19.9373 17.1774 19.7004 17.1774 19.4634 17.2724L15.9566 19.03L16.62 15.2299C16.6674 14.9924 16.5726 14.7549 16.4305 14.6124L13.7292 11.9523L17.473 11.3823C17.71 11.3348 17.8996 11.1923 17.9943 11.0023L19.653 7.58224L21.3117 11.0023C21.4065 11.1923 21.596 11.3823 21.833 11.3823L25.5768 11.9523L22.9229 14.6124Z" fill="#3E3E3E"/>
</g>
<defs>
<clipPath id="clip0_113_6">
<rect width="39" height="43" fill="white"/>
</clipPath>
</defs>
</svg>
