<svg width="71" height="35" viewBox="0 0 71 35" fill="none" xmlns="http://www.w3.org/2000/svg">
<path d="M0.92 34V0.399998H6.2V29.2H14.888V34H0.92ZM22.0336 8.128V26.272C22.0336 28.48 22.9456 29.584 24.7696 29.584C26.5936 29.584 27.5056 28.48 27.5056 26.272V8.128C27.5056 5.92 26.5936 4.816 24.7696 4.816C22.9456 4.816 22.0336 5.92 22.0336 8.128ZM16.7536 25.936V8.464C16.7536 5.776 17.4416 3.696 18.8176 2.224C20.1936 0.751999 22.1776 0.0159998 24.7696 0.0159998C27.3616 0.0159998 29.3456 0.751999 30.7216 2.224C32.0976 3.696 32.7856 5.776 32.7856 8.464V25.936C32.7856 28.624 32.0976 30.704 30.7216 32.176C29.3456 33.648 27.3616 34.384 24.7696 34.384C22.1776 34.384 20.1936 33.648 18.8176 32.176C17.4416 30.704 16.7536 28.624 16.7536 25.936ZM44.1369 20.08V15.28H51.5289V25.936C51.5289 28.656 50.8569 30.752 49.5129 32.224C48.1689 33.664 46.2169 34.384 43.6569 34.384C41.0969 34.384 39.1449 33.664 37.8009 32.224C36.4569 30.752 35.7849 28.656 35.7849 25.936V8.464C35.7849 5.744 36.4569 3.664 37.8009 2.224C39.1449 0.751999 41.0969 0.0159998 43.6569 0.0159998C46.2169 0.0159998 48.1689 0.751999 49.5129 2.224C50.8569 3.664 51.5289 5.744 51.5289 8.464V11.728H46.5369V8.128C46.5369 5.92 45.6249 4.816 43.8009 4.816C41.9769 4.816 41.0649 5.92 41.0649 8.128V26.272C41.0649 28.448 41.9769 29.536 43.8009 29.536C45.6249 29.536 46.5369 28.448 46.5369 26.272V20.08H44.1369ZM59.768 8.128V26.272C59.768 28.48 60.68 29.584 62.504 29.584C64.328 29.584 65.24 28.48 65.24 26.272V8.128C65.24 5.92 64.328 4.816 62.504 4.816C60.68 4.816 59.768 5.92 59.768 8.128ZM54.488 25.936V8.464C54.488 5.776 55.176 3.696 56.552 2.224C57.928 0.751999 59.912 0.0159998 62.504 0.0159998C65.096 0.0159998 67.08 0.751999 68.456 2.224C69.832 3.696 70.52 5.776 70.52 8.464V25.936C70.52 28.624 69.832 30.704 68.456 32.176C67.08 33.648 65.096 34.384 62.504 34.384C59.912 34.384 57.928 33.648 56.552 32.176C55.176 30.704 54.488 28.624 54.488 25.936Z" fill="#FCFCFC"/>
</svg>
