<svg width="46" height="54" viewBox="0 0 46 54" fill="none" xmlns="http://www.w3.org/2000/svg">
<g clip-path="url(#clip0_1_268)">
<path d="M23.1725 31.5192C11.513 31.5192 2.02693 41.0059 2.02693 52.6671C2.02693 53.1622 2.42812 53.5639 2.92377 53.5639H43.4212C43.9163 53.5639 44.318 53.1622 44.318 52.6671C44.318 41.0059 34.8325 31.5192 23.1725 31.5192ZM3.84093 51.7703C4.31087 41.5129 12.8021 33.3128 23.1725 33.3128C33.5429 33.3128 42.0347 41.5129 42.504 51.7703H3.84093Z" fill="#3E3E3E"/>
<path d="M22.8203 4.99915C16.1072 4.99915 10.6455 10.4609 10.6455 17.174C10.6455 23.8871 16.1072 29.3488 22.8203 29.3488C29.534 29.3488 34.9952 23.8871 34.9952 17.174C34.9952 10.4609 29.5334 4.99915 22.8203 4.99915ZM22.8203 27.5551C17.0962 27.5551 12.4392 22.8982 12.4392 17.174C12.4392 11.4498 17.0962 6.79281 22.8203 6.79281C28.5445 6.79281 33.2015 11.4498 33.2015 17.174C33.2015 22.8982 28.5445 27.5551 22.8203 27.5551Z" fill="#3E3E3E"/>
<path d="M8.02975 23.8386C8.5254 23.8386 8.92658 23.4374 8.92658 22.9418V11.3356C8.92658 11.2782 8.92001 11.2226 8.90984 11.1681C11.3128 5.59642 16.7147 2.01805 22.8209 2.01805C29.0366 2.01805 34.5288 5.72616 36.863 11.4743V22.8742C36.1108 24.7265 35.0185 26.3922 33.6045 27.8247C33.2565 28.1775 33.2601 28.7449 33.6128 29.0929C33.7874 29.2657 34.0152 29.3518 34.243 29.3518C34.4744 29.3518 34.7058 29.2627 34.881 29.0851C36.3876 27.5587 37.5685 25.7943 38.4043 23.8392H39.0345C42.7289 23.8392 45.7345 20.8336 45.7345 17.1393C45.7345 13.4449 42.7289 10.4393 39.0345 10.4393H38.3661C35.6738 4.21947 29.6393 0.224976 22.8209 0.224976C15.999 0.224976 9.96392 4.21888 7.27282 10.4393H6.75505C3.06069 10.4393 0.0550995 13.4449 0.0550995 17.1393C0.0550995 20.8336 3.06069 23.8392 6.75505 23.8392H8.02975V23.8386ZM43.9408 17.1387C43.9408 19.8441 41.7394 22.0449 39.0345 22.0449H38.6566V12.2324H39.0345C41.74 12.2324 43.9408 14.4332 43.9408 17.1387ZM1.84877 17.1387C1.84877 14.4332 4.0496 12.2324 6.75505 12.2324H7.13292V22.0449H6.75505C4.0496 22.0449 1.84877 19.8441 1.84877 17.1387Z" fill="#3E3E3E"/>
</g>
<defs>
<clipPath id="clip0_1_268">
<rect width="46" height="54" fill="white"/>
</clipPath>
</defs>
</svg>
