<svg width="70" height="70" viewBox="0 0 70 70" fill="none" xmlns="http://www.w3.org/2000/svg">
<path d="M27.5625 59.7357C30.3352 61.2884 33.0661 62.0683 35.61 62.0683C37.7396 62.0676 39.738 61.5207 41.5167 60.4228L48.0729 56.3784C48.3094 56.2326 48.4782 55.9996 48.5423 55.729C48.6065 55.459 48.5598 55.1744 48.414 54.938L42.7312 45.7276C42.5854 45.4918 42.3517 45.323 42.0817 45.2588C41.8097 45.1954 41.5265 45.2414 41.2907 45.3872L34.6851 49.4643C33.6694 50.0907 32.3664 50.2909 31.113 50.0154C29.8595 49.7392 28.7895 49.0123 28.177 48.019L19.199 33.4689C17.9009 31.3652 18.5552 28.5973 20.6576 27.2992C20.6576 27.2992 20.6583 27.2992 20.6583 27.2985L27.5144 23.0658C28.0061 22.7623 28.1582 22.1178 27.8548 21.626L22.1712 12.4177C21.8678 11.926 21.2226 11.7718 20.7315 12.0766L13.881 16.3052C6.24575 21.0178 6.5136 33.3887 14.5339 46.3896C18.2106 52.3508 22.8381 57.0906 27.5625 59.7357ZM14.981 18.0853L20.9408 14.4071L25.5257 21.8346L19.5597 25.5176C19.5583 25.5183 19.5576 25.519 19.5569 25.5197C16.4751 27.4247 15.5153 31.4823 17.4189 34.5669L26.3969 49.1163C27.3044 50.5888 28.8599 51.6609 30.6638 52.0585C32.4432 52.4484 34.3105 52.1534 35.7844 51.2438L41.4993 47.7163L46.0835 55.1451L40.4174 58.6405C36.2796 61.1936 31.6989 59.652 28.5851 57.9088C24.1662 55.4339 19.808 50.9529 16.3147 45.2902C8.94173 33.3385 8.39347 22.1513 14.981 18.0853Z" fill="#E1E1E1"/>
<path d="M34.5839 23.4041C37.9698 23.6043 40.9664 25.3439 42.8065 28.1781C44.5657 30.879 44.9891 34.1888 43.9672 37.2594C43.7845 37.8077 44.0809 38.4006 44.6292 38.5819C44.7387 38.6189 44.8496 38.6357 44.9598 38.6357C45.3986 38.6357 45.8066 38.3587 45.9524 37.92C47.1773 34.2411 46.6695 30.2735 44.5608 27.0369C42.3887 23.6901 38.7043 21.5507 34.7074 21.3142C34.125 21.2898 33.6353 21.7202 33.6011 22.2971C33.5669 22.8746 34.0071 23.3699 34.5839 23.4041Z" fill="#E1E1E1"/>
<path d="M36.0488 15.6376C41.5314 16.2674 46.3981 19.2759 49.401 23.8902C52.3105 28.3636 53.1349 33.8714 51.6624 39.0018C51.5027 39.5578 51.8236 40.1367 52.3788 40.2958C52.4758 40.3237 52.572 40.3369 52.6683 40.3369C53.1224 40.3369 53.5416 40.0377 53.6727 39.5794C55.3127 33.8658 54.3947 27.7309 51.1546 22.749C47.8106 17.6102 42.3922 14.2606 36.2873 13.5589C35.7244 13.4926 35.195 13.9049 35.1287 14.4789C35.0624 15.053 35.474 15.5713 36.0488 15.6376Z" fill="#E1E1E1"/>
<path d="M37.4794 8.79746C44.761 9.8096 51.2355 13.9251 55.2436 20.0893C59.17 26.121 60.3475 33.5708 58.4753 40.5281C58.3246 41.0861 58.6559 41.6602 59.214 41.8102C59.3046 41.8346 59.3967 41.8464 59.4867 41.8464C59.9478 41.8464 60.3712 41.5395 60.496 41.0722C62.5231 33.5415 61.248 25.4771 56.9979 18.9481C52.6592 12.2761 45.6503 7.8209 37.7689 6.72505C37.199 6.64902 36.6674 7.04453 36.5886 7.61721C36.5084 8.1892 36.9074 8.71794 37.4794 8.79746Z" fill="#E1E1E1"/>
</svg>
