<svg width="42" height="41" viewBox="0 0 42 41" fill="none" xmlns="http://www.w3.org/2000/svg">
<g clip-path="url(#clip0_1_265)">
<path d="M40.4211 1.82873C40.0146 1.42506 39.5257 1.11313 38.9874 0.914107C38.4491 0.715087 37.8742 0.633629 37.3015 0.67526C30.615 1.17349 24.3336 4.05594 19.6108 8.79326L18.9901 9.42193H10.8945C10.785 9.42202 10.6767 9.44382 10.5757 9.48605C10.4748 9.52829 10.3834 9.59012 10.3068 9.66793L1.72231 18.4146C1.60878 18.5299 1.53196 18.6759 1.50148 18.8345C1.47101 18.993 1.48822 19.157 1.55097 19.3059C1.61373 19.4547 1.71923 19.5818 1.85425 19.6713C1.98927 19.7607 2.1478 19.8085 2.30999 19.8086H10.2079L12.3225 21.9133C9.11424 22.0305 6.07249 23.3643 3.82037 25.6415C-2.90771 32.4202 2.39237 40.1555 2.44729 40.2321C2.54767 40.3752 2.69133 40.4827 2.85735 40.539C3.02338 40.5952 3.20311 40.5973 3.37038 40.5448C3.53766 40.4924 3.68375 40.3882 3.78741 40.2474C3.89106 40.1065 3.94686 39.9365 3.94669 39.7619C3.94669 37.1325 6.42372 34.6397 9.03806 34.6397C10.2932 34.6469 11.4943 35.1494 12.3777 36.0369C13.2612 36.9244 13.7548 38.1245 13.7505 39.3738C13.753 39.522 13.7959 39.6668 13.8745 39.7927C13.9532 39.9186 14.0646 40.0209 14.1971 40.0887C14.3295 40.1566 14.4779 40.1875 14.6265 40.178C14.7752 40.1686 14.9185 40.1193 15.0412 40.0353C16.6244 38.8123 17.9079 37.2473 18.7946 35.4584C19.6814 33.6695 20.1482 31.7035 20.16 29.7087L22.3569 31.8954V39.7619C22.3571 39.924 22.4054 40.0824 22.496 40.2171C22.5865 40.3518 22.7151 40.4568 22.8656 40.5188C23.016 40.5808 23.1816 40.5971 23.3413 40.5655C23.501 40.5339 23.6477 40.4559 23.7629 40.3414L32.5506 31.5947C32.7025 31.4438 32.7892 31.2398 32.7923 31.0262V23.1597L33.4239 22.5419C38.1835 17.8411 41.0794 11.589 41.58 4.93379C41.6218 4.36379 41.54 3.79149 41.34 3.25574C41.1401 2.71999 40.8267 2.23331 40.4211 1.82873V1.82873ZM11.2405 11.0619H17.3424L10.2024 18.1686H4.26525L11.2405 11.0619ZM15.184 37.7557C14.8297 36.3988 14.0341 35.1969 12.9213 34.3375C11.8084 33.4781 10.4411 33.0096 9.03257 33.0051C6.33035 33.0051 3.81488 34.8966 2.78232 37.3785C1.82117 34.9895 1.04676 30.7638 4.97925 26.8114C6.14609 25.6303 7.56861 24.7302 9.13824 24.1797C10.7079 23.6293 12.3831 23.4431 14.0361 23.6353L18.4299 28.0086C18.6523 29.7713 18.4762 31.5612 17.9146 33.2476C17.3531 34.9339 16.4201 36.4741 15.184 37.7557V37.7557ZM31.1446 30.6873L24.0046 37.7939V31.9063L31.1446 24.7997V30.6873ZM32.2431 21.3939L31.3863 22.2467L31.3588 22.2741L23.1808 30.403L11.7128 18.9886L19.9018 10.8378L19.9293 10.8105L20.7861 9.96859C25.2238 5.50871 31.1286 2.79136 37.4168 2.31526C37.7547 2.2851 38.0952 2.32916 38.4142 2.44432C38.7331 2.55948 39.0228 2.74293 39.2627 2.98173C39.5026 3.22052 39.6869 3.50883 39.8026 3.8263C39.9183 4.14376 39.9626 4.48264 39.9323 4.81899C39.454 11.0779 36.7239 16.9551 32.2431 21.3721V21.3939Z" fill="#3E3E3E"/>
<path d="M29.2223 8.32864C28.0152 8.32927 26.8456 8.74646 25.9129 9.50913C24.9802 10.2718 24.342 11.3328 24.1071 12.5113C23.8722 13.6898 24.0551 14.9129 24.6246 15.9722C25.1941 17.0316 26.115 17.8616 27.2305 18.3209C28.3459 18.7802 29.5868 18.8403 30.7418 18.491C31.8968 18.1418 32.8943 17.4047 33.5646 16.4055C34.2348 15.4062 34.5362 14.2066 34.4174 13.0109C34.2986 11.8153 33.767 10.6976 32.9131 9.84837C32.4294 9.36475 31.8542 8.98142 31.2206 8.72055C30.5871 8.45969 29.9079 8.32648 29.2223 8.32864V8.32864ZM31.7488 16.0366C31.1653 16.6184 30.3971 16.9808 29.5753 17.0621C28.7535 17.1433 27.9287 16.9385 27.2416 16.4824C26.5545 16.0264 26.0475 15.3473 25.807 14.5609C25.5665 13.7745 25.6074 12.9294 25.9227 12.1696C26.238 11.4098 26.8082 10.7824 27.5361 10.3941C28.2641 10.0059 29.1048 9.88083 29.915 10.0403C30.7252 10.1998 31.4547 10.634 31.9794 11.2688C32.504 11.9037 32.7913 12.6999 32.7923 13.522C32.7941 13.989 32.7027 14.4517 32.5236 14.8833C32.3445 15.315 32.0811 15.707 31.7488 16.0366V16.0366Z" fill="#3E3E3E"/>
</g>
<defs>
<clipPath id="clip0_1_265">
<rect width="42" height="41" fill="white"/>
</clipPath>
</defs>
</svg>
