<svg width="34" height="34" viewBox="0 0 34 34" fill="none" xmlns="http://www.w3.org/2000/svg">
<path d="M17 0C7.61125 0 0 7.61125 0 17C0 26.3887 7.61125 34 17 34C26.3887 34 34 26.3887 34 17C34 7.61125 26.3887 0 17 0ZM26.5628 7.90118L22.7565 25.7768C22.6852 26.1278 22.2853 26.2998 21.9815 26.1095L16.1281 22.2273L13.0492 25.0925C12.7752 25.3269 12.3508 25.2128 12.2315 24.8722L10.2268 18.5496L4.84365 16.3419C4.43065 16.1537 4.43651 15.4959 4.85985 15.3314L25.874 7.32063C26.2526 7.17377 26.6435 7.50335 26.5628 7.90118Z" fill="#FCFCFC"/>
<path d="M12.8782 22.9973L13.2202 19.7471L22.7137 10.4673L11.2531 17.9937L12.8782 22.9973Z" fill="#FCFCFC"/>
</svg>
