<svg width="80" height="80" viewBox="0 0 80 80" fill="none" xmlns="http://www.w3.org/2000/svg">
<g clip-path="url(#clip0_171_13)">
<path d="M40 0C17.9088 0 0 17.9088 0 40C0 62.0912 17.9088 80 40 80C62.0912 80 80 62.0912 80 40C80 17.9088 62.0912 0 40 0ZM62.5008 18.591L53.5448 60.6514C53.3769 61.4771 52.4359 61.8819 51.7213 61.4341L37.9486 52.2996L30.7041 59.0412C30.0592 59.5928 29.0607 59.3243 28.78 58.5229L24.0631 43.6462L11.3968 38.4515C10.425 38.0086 10.4388 36.4609 11.4349 36.074L60.8801 17.225C61.7708 16.8795 62.6906 17.6549 62.5008 18.591Z" fill="#3E3E3E"/>
<path d="M30.3017 54.1111L31.1064 46.4635L53.4442 24.6287L26.4779 42.3379L30.3017 54.1111Z" fill="#3E3E3E"/>
</g>
<defs>
<clipPath id="clip0_171_13">
<rect width="80" height="80" fill="white"/>
</clipPath>
</defs>
</svg>
