<svg width="58" height="32" viewBox="0 0 58 32" fill="none" xmlns="http://www.w3.org/2000/svg">
<g clip-path="url(#clip0_112_2)">
<path d="M56.5772 15.9114H51.6918V9.09906C51.6918 8.88225 51.5888 8.67432 51.4056 8.52101C51.2223 8.3677 50.9738 8.28158 50.7147 8.28158H35.4069V1.46922C35.4069 1.25241 35.3039 1.04448 35.1207 0.891169C34.9374 0.737861 34.6889 0.651733 34.4298 0.651733H1.20854C0.949398 0.651733 0.70087 0.737861 0.51763 0.891169C0.334389 1.04448 0.231445 1.25241 0.231445 1.46922V27.0837C0.231445 27.3005 0.334389 27.5084 0.51763 27.6617C0.70087 27.815 0.949398 27.9012 1.20854 27.9012H8.64749C8.78051 28.9227 9.35973 29.8671 10.274 30.5532C11.1883 31.2393 12.3732 31.6188 13.6014 31.6188C14.8295 31.6188 16.0144 31.2393 16.9287 30.5532C17.843 29.8671 18.4222 28.9227 18.5552 27.9012H40.4096C40.5427 28.9241 41.1226 29.8698 42.0381 30.5569C42.9536 31.2439 44.1401 31.6239 45.37 31.6239C46.5998 31.6239 47.7863 31.2439 48.7018 30.5569C49.6173 29.8698 50.1972 28.9241 50.3304 27.9012H56.5772C56.8364 27.9012 57.0849 27.815 57.2682 27.6617C57.4514 27.5084 57.5543 27.3005 57.5543 27.0837V16.7289C57.5543 16.5121 57.4514 16.3042 57.2682 16.1509C57.0849 15.9975 56.8364 15.9114 56.5772 15.9114V15.9114ZM13.5851 29.9939C12.9839 29.9961 12.3955 29.8488 11.8944 29.5708C11.3934 29.2929 11.0023 28.8967 10.7707 28.4325C10.5392 27.9683 10.4776 27.457 10.5938 26.9635C10.7099 26.47 10.9987 26.0165 11.4233 25.6604C11.848 25.3044 12.3894 25.0619 12.979 24.9636C13.5687 24.8653 14.1799 24.9158 14.7352 25.1085C15.2905 25.3012 15.7649 25.6276 16.0982 26.0462C16.4316 26.4648 16.6088 26.9567 16.6076 27.4597C16.6059 28.1267 16.2907 28.7664 15.7301 29.2406C15.1694 29.7147 14.4083 29.9853 13.6111 29.9939H13.5851ZM13.5851 23.2851C12.5155 23.2907 11.4762 23.5833 10.6202 24.1199C9.76422 24.6566 9.13667 25.4089 8.82988 26.2662H2.18563V2.2867H33.4527V26.2662H18.3794C18.0728 25.4067 17.4436 24.6526 16.5847 24.1156C15.7259 23.5787 14.6832 23.2875 13.6111 23.2851H13.5851ZM45.3667 29.9939C44.7661 29.9939 44.1789 29.8448 43.6796 29.5655C43.1803 29.2862 42.7912 28.8893 42.5616 28.4249C42.3321 27.9605 42.2724 27.4496 42.39 26.9568C42.5077 26.464 42.7974 26.0115 43.2226 25.6566C43.6478 25.3016 44.1893 25.0601 44.7785 24.9628C45.3678 24.8654 45.9783 24.9165 46.5329 25.1095C47.0874 25.3026 47.5611 25.6289 47.8938 26.0473C48.2266 26.4657 48.4035 26.9572 48.4022 27.4597C48.4005 28.1323 48.0799 28.7769 47.5108 29.252C46.9418 29.7271 46.1706 29.9939 45.3667 29.9939ZM55.6001 26.2662H50.148C49.8357 25.4127 49.2042 24.6655 48.3464 24.1346C47.4887 23.6038 46.4499 23.3173 45.383 23.3173C44.3161 23.3173 43.2773 23.6038 42.4195 24.1346C41.5618 24.6655 40.9303 25.4127 40.618 26.2662H35.4069V9.91654H49.7376V16.7289C49.7376 16.9457 49.8405 17.1536 50.0238 17.307C50.207 17.4603 50.4555 17.5464 50.7147 17.5464H55.6001V26.2662Z" fill="#3E3E3E"/>
<path d="M6.41966 10.4615H26.2873L23.0303 13.1864C22.9343 13.2613 22.8573 13.3515 22.8039 13.4518C22.7505 13.5521 22.7217 13.6603 22.7194 13.7701C22.7171 13.8798 22.7413 13.9889 22.7904 14.0907C22.8395 14.1925 22.9127 14.2849 23.0055 14.3626C23.0982 14.4402 23.2088 14.5014 23.3304 14.5425C23.4521 14.5836 23.5824 14.6038 23.7136 14.6019C23.8448 14.5999 23.9742 14.5759 24.094 14.5312C24.2139 14.4865 24.3218 14.4221 24.4112 14.3418L28.7951 10.674C28.9781 10.5207 29.0809 10.313 29.0809 10.0963C29.0809 9.87971 28.9781 9.67193 28.7951 9.51865L24.4112 5.85088C24.3188 5.77501 24.2095 5.71512 24.0895 5.67461C23.9694 5.6341 23.841 5.61377 23.7115 5.61478C23.5821 5.61579 23.4542 5.63813 23.335 5.68051C23.2159 5.72289 23.1079 5.78448 23.0172 5.86178C22.9266 5.93907 22.855 6.03055 22.8066 6.13099C22.7581 6.23143 22.7338 6.33887 22.7351 6.44717C22.7363 6.55547 22.763 6.66251 22.8136 6.76218C22.8643 6.86184 22.9379 6.95219 23.0303 7.02805L25.1799 8.82651H6.41966C6.16052 8.82651 5.91199 8.91264 5.72875 9.06595C5.54551 9.21926 5.44257 9.42719 5.44257 9.644C5.44257 9.86081 5.54551 10.0687 5.72875 10.222C5.91199 10.3754 6.16052 10.4615 6.41966 10.4615Z" fill="#3E3E3E"/>
<path d="M27.5901 18.3639C27.5901 18.1471 27.4871 17.9392 27.3039 17.7859C27.1206 17.6326 26.8721 17.5464 26.613 17.5464H6.81052L10.0024 14.8814C10.0926 14.8049 10.1639 14.7142 10.2123 14.6145C10.2606 14.5149 10.2851 14.4082 10.2842 14.3007C10.2833 14.1931 10.257 14.0868 10.207 13.9878C10.157 13.8887 10.0841 13.7988 9.99259 13.7233C9.90106 13.6478 9.79265 13.5881 9.67355 13.5477C9.55445 13.5072 9.427 13.4868 9.29846 13.4876C9.16992 13.4883 9.04282 13.5103 8.92442 13.5521C8.80601 13.594 8.69862 13.6549 8.60838 13.7315L4.22448 17.3993C4.0415 17.5526 3.93872 17.7603 3.93872 17.977C3.93872 18.1936 4.0415 18.4014 4.22448 18.5547L8.60838 22.2224C8.79237 22.3771 9.04225 22.4643 9.30307 22.4648C9.56388 22.4653 9.81425 22.3791 9.99911 22.2252C10.184 22.0712 10.2882 21.8622 10.2888 21.6439C10.2894 21.4257 10.1864 21.2163 10.0024 21.0616L7.74853 19.1814H26.639C26.8936 19.1757 27.1355 19.0871 27.3132 18.9344C27.4908 18.7817 27.5902 18.577 27.5901 18.3639V18.3639Z" fill="#3E3E3E"/>
</g>
<defs>
<clipPath id="clip0_112_2">
<rect width="58" height="32" fill="white"/>
</clipPath>
</defs>
</svg>
