<svg width="80" height="80" viewBox="0 0 80 80" fill="none" xmlns="http://www.w3.org/2000/svg">
<path d="M40 0C17.9088 0 0 17.9088 0 40C0 62.0912 17.9088 80 40 80C62.0912 80 80 62.0912 80 40C80 17.9088 62.0912 0 40 0ZM38.647 20.8428C38.9422 20.8371 39.2513 20.8825 39.5165 20.8817C39.6244 20.8809 39.7242 20.8728 39.811 20.8509C49.3632 21.1981 57.6987 29.8816 57.5251 39.4338C57.5251 40.3018 57.8723 41.6913 56.4828 41.6913C55.0933 41.6913 55.4405 40.3018 55.4405 39.2602C55.2888 38.0013 55.0819 36.8259 54.8183 35.7309C54.5547 34.6358 54.2326 33.6202 53.8506 32.6801C53.2763 31.2695 52.5657 30.0284 51.7051 28.9422C49.1248 25.683 45.2052 23.8149 39.6366 22.9356C38.7687 22.762 37.5527 22.9356 37.5527 21.8933C37.5527 20.9912 38.0727 20.842 38.647 20.8428ZM51.7935 39.781C50.2304 39.9546 50.5775 38.5651 50.404 37.6971C49.3616 31.6183 47.2777 29.3608 41.0261 27.9713C40.1574 27.7977 38.7687 27.9713 38.9422 26.5818C39.1158 25.1922 40.5054 25.7138 41.3733 25.8874C47.6257 26.5818 52.6622 31.7919 52.6622 37.6971C52.4878 38.3915 53.0094 39.6074 51.7935 39.781ZM47.9729 36.6548C47.9729 37.3491 47.9729 38.2179 46.9306 38.3915C46.2362 38.3915 45.8882 37.8707 45.7146 37.1755C45.541 34.5709 44.1515 33.1814 41.5469 32.8334C40.8525 32.6598 39.9838 32.4862 40.331 31.4439C40.5045 30.7495 41.1989 30.7495 41.8941 30.7495C44.8467 30.5767 47.9729 33.703 47.9729 36.6548ZM57.6979 55.7592C56.6556 58.7119 53.0086 61.6637 49.8824 61.6637C49.5352 61.4901 48.6664 61.4901 47.7985 61.1429C34.2521 55.2385 24.1791 45.6862 18.6218 31.7927C16.7116 27.2769 18.7954 23.2828 23.4847 21.7197C24.3527 21.3725 25.2214 21.3725 26.0894 21.7197C28.1733 22.414 33.2098 29.5352 33.3834 31.6191C33.5569 33.3558 32.341 34.2237 31.2995 34.9189C29.2156 36.3084 29.2156 38.2187 30.0836 40.129C32.1674 44.6447 35.6408 47.5965 39.983 49.6812C41.5461 50.3756 43.1092 50.3756 44.1507 48.6389C46.061 45.6862 48.4921 45.6862 51.0975 47.5965C52.3134 48.4645 53.7021 49.3332 54.9181 50.3756C56.6564 51.7643 58.7403 52.9802 57.6979 55.7592Z" fill="#3E3E3E"/>
</svg>
