<svg width="34" height="34" viewBox="0 0 34 34" fill="none" xmlns="http://www.w3.org/2000/svg">
<path d="M17.6923 7.19922C12.9555 7.19922 9.10335 11.051 9.10162 15.7858C9.10093 17.4085 9.55496 18.9884 10.4144 20.3557L10.6185 20.6804L9.75112 23.8493L13.001 22.9968L13.3147 23.1829C14.633 23.9655 16.1444 24.3792 17.6854 24.3799H17.6888C22.4218 24.3799 26.274 20.5277 26.2761 15.7926C26.2771 13.498 25.3846 11.3406 23.7632 9.71757C22.1419 8.09417 19.9859 7.19991 17.6923 7.19922ZM22.7435 19.4776C22.5284 20.0806 21.4969 20.6311 21.0011 20.7049C20.5564 20.7714 19.9935 20.799 19.3753 20.6025C19.0006 20.4836 18.5197 20.3246 17.9036 20.0588C15.3136 18.9408 13.6222 16.3332 13.4933 16.1612C13.3644 15.9888 12.4391 14.7615 12.4391 13.4908C12.4391 12.2201 13.1058 11.5957 13.3427 11.3372C13.5792 11.0786 13.8591 11.0142 14.0311 11.0142C14.2031 11.0142 14.3755 11.0159 14.5258 11.0231C14.6844 11.031 14.8971 10.9631 15.1067 11.4661C15.3218 11.9832 15.8383 13.2536 15.9027 13.3829C15.9672 13.5122 16.0103 13.6628 15.9241 13.8352C15.8379 14.0072 15.7952 14.1151 15.6659 14.2658C15.5366 14.4164 15.3949 14.6022 15.2787 14.7181C15.1495 14.8467 15.015 14.9866 15.1657 15.2448C15.3163 15.5034 15.8345 16.3487 16.6019 17.033C17.5878 17.9125 18.4197 18.1852 18.6779 18.3144C18.9361 18.4437 19.0868 18.422 19.2371 18.25C19.3877 18.0776 19.8825 17.496 20.0545 17.2378C20.2265 16.9796 20.3985 17.0223 20.6354 17.1085C20.8719 17.1947 22.1412 17.819 22.3994 17.9483C22.6576 18.0776 22.8297 18.1421 22.8941 18.25C22.9586 18.3575 22.9586 18.8747 22.7435 19.4776Z" fill="#FCFCFC"/>
<path d="M17 0C7.61125 0 0 7.61125 0 17C0 26.3887 7.61125 34 17 34C26.3887 34 34 26.3887 34 17C34 7.61125 26.3887 0 17 0ZM17.6888 26.1243C17.6885 26.1243 17.6891 26.1243 17.6888 26.1243H17.6847C15.9554 26.1236 14.2565 25.69 12.7476 24.8667L7.27064 26.3036L8.73649 20.9497C7.83223 19.3829 7.35648 17.6054 7.35752 15.7848C7.35924 10.0882 11.9943 5.45384 17.6888 5.45384C20.4526 5.45488 23.0468 6.53082 24.9974 8.4838C26.9479 10.4364 28.0218 13.0323 28.0204 15.7931C28.018 21.4896 23.3829 26.1243 17.6888 26.1243Z" fill="#FCFCFC"/>
</svg>
