<svg width="80" height="80" viewBox="0 0 80 80" fill="none" xmlns="http://www.w3.org/2000/svg">
<g clip-path="url(#clip0_171_20)">
<path d="M41.6289 16.9387C30.4835 16.9387 21.4196 26.0018 21.4155 37.1423C21.4139 40.9605 22.4822 44.678 24.5044 47.8951L24.9846 48.6592L22.9438 56.1154L30.5906 54.1094L31.3287 54.5474C34.4306 56.3888 37.9867 57.3622 41.6126 57.3638H41.6208C52.7572 57.3638 61.8211 48.2999 61.826 37.1585C61.8284 31.7595 59.7283 26.6832 55.9134 22.8643C52.0985 19.0445 47.0255 16.9403 41.6289 16.9387ZM53.514 45.8291C53.0078 47.2478 50.5808 48.5432 49.4144 48.7168C48.368 48.8733 47.0434 48.9382 45.589 48.4759C44.7072 48.196 43.5757 47.8221 42.1261 47.1967C36.0318 44.5661 32.0523 38.4304 31.7489 38.0257C31.4455 37.6201 29.2684 34.7324 29.2684 31.7424C29.2684 28.7525 30.8372 27.2835 31.3944 26.6751C31.9509 26.0667 32.6096 25.915 33.0143 25.915C33.4191 25.915 33.8247 25.9191 34.1783 25.9361C34.5515 25.9548 35.052 25.795 35.5452 26.9785C36.0513 28.1952 37.2664 31.1843 37.4181 31.4885C37.5698 31.7927 37.6712 32.1472 37.4684 32.5528C37.2656 32.9575 37.165 33.2114 36.8609 33.5659C36.5567 33.9204 36.2233 34.3576 35.9499 34.6302C35.6457 34.9327 35.3294 35.2621 35.6839 35.8696C36.0383 36.478 37.2575 38.467 39.0632 40.0771C41.3831 42.1464 43.3404 42.788 43.948 43.0922C44.5555 43.3964 44.91 43.3453 45.2637 42.9405C45.6182 42.5349 46.7822 41.1665 47.1869 40.5589C47.5917 39.9514 47.9965 40.052 48.5538 40.2548C49.1102 40.4575 52.0969 41.9266 52.7045 42.2307C53.312 42.5349 53.7168 42.6866 53.8685 42.9405C54.0202 43.1936 54.0202 44.4103 53.514 45.8291Z" fill="#3E3E3E"/>
<path d="M40 0C17.9088 0 0 17.9088 0 40C0 62.0912 17.9088 80 40 80C62.0912 80 80 62.0912 80 40C80 17.9088 62.0912 0 40 0ZM41.6207 61.469C41.6199 61.469 41.6215 61.469 41.6207 61.469H41.611C37.5422 61.4674 33.5448 60.4469 29.9943 58.5099L17.1074 61.8908L20.5565 49.2935C18.4288 45.6067 17.3094 41.4244 17.3118 37.1407C17.3159 23.737 28.2219 12.8326 41.6207 12.8326C48.1238 12.835 54.2278 15.3666 58.8173 19.9619C63.4069 24.5563 65.9336 30.6643 65.9304 37.1601C65.9247 50.5638 55.0187 61.469 41.6207 61.469Z" fill="#3E3E3E"/>
</g>
<defs>
<clipPath id="clip0_171_20">
<rect width="80" height="80" fill="white"/>
</clipPath>
</defs>
</svg>
