<svg width="31" height="31" viewBox="0 0 31 31" fill="none" xmlns="http://www.w3.org/2000/svg">
<g clip-path="url(#clip0_107_288)">
<rect width="31" height="31" rx="15.5" fill="#D9D9D9"/>
<path d="M15.127 24.3629C15.0455 24.2814 14.9951 24.169 14.9953 24.0447L14.9968 8.07183C14.9968 7.82325 15.1982 7.62186 15.4468 7.62186C15.6954 7.62186 15.8967 7.82325 15.8965 8.07161L15.8946 24.0444C15.8946 24.293 15.6932 24.4944 15.4446 24.4944C15.321 24.4944 15.2083 24.4442 15.127 24.3629Z" fill="#3E3E3E"/>
<path d="M7.14134 16.3773C7.05986 16.2958 7.00962 16.1835 7.0094 16.0592C7.0094 15.8107 7.2108 15.6093 7.45937 15.6093L23.4342 15.6093C23.6828 15.6093 23.8839 15.8104 23.8839 16.059C23.8839 16.3076 23.6825 16.509 23.434 16.509L7.45915 16.509C7.3353 16.5088 7.22281 16.4587 7.14134 16.3773Z" fill="#3E3E3E"/>
<path d="M15.4479 30.8922C6.92977 30.8922 0 23.964 0 15.4479C0 6.93008 6.92977 0 15.4479 0C23.9633 0 30.891 6.93008 30.891 15.4479C30.891 23.9637 23.9633 30.8922 15.4479 30.8922ZM15.4479 0.899545C7.42588 0.899545 0.899854 7.42588 0.899854 15.4476C0.899854 23.4676 7.42619 29.992 15.4479 29.992C23.4672 29.992 29.9911 23.4672 29.9911 15.4476C29.9914 7.42588 23.4672 0.899545 15.4479 0.899545Z" fill="#3E3E3E"/>
</g>
<defs>
<clipPath id="clip0_107_288">
<rect width="31" height="31" rx="15.5" fill="white"/>
</clipPath>
</defs>
</svg>
