<svg width="45" height="42" viewBox="0 0 45 42" fill="none" xmlns="http://www.w3.org/2000/svg">
<g clip-path="url(#clip0_1_263)">
<path d="M44.9065 7.6304L42.1765 0.770051C42.1531 0.622442 42.0924 0.483107 42.0001 0.364991C41.9078 0.246875 41.7868 0.153812 41.6486 0.0944472C41.5103 0.0350828 41.3591 0.0113437 41.2091 0.0254356C41.0591 0.0395275 40.9151 0.0909934 40.7905 0.175051L33.4465 2.86445C33.2466 2.9601 33.0894 3.12562 33.0051 3.32922C32.9208 3.53283 32.9153 3.76014 32.9897 3.96751C33.0641 4.17487 33.2132 4.34765 33.4082 4.45266C33.6033 4.55766 33.8306 4.58749 34.0465 4.5364L39.5305 2.5134L30.3745 22.4876L25.7005 14.5979C25.6176 14.4579 25.4977 14.3429 25.3538 14.2655C25.2099 14.1881 25.0474 14.151 24.8838 14.1584C24.7202 14.1657 24.5618 14.2172 24.4255 14.3072C24.2893 14.3972 24.1803 14.5224 24.1105 14.6693L17.3845 28.9017L11.9725 18.6201C11.8991 18.468 11.7817 18.341 11.6354 18.2552C11.489 18.1694 11.3203 18.1286 11.1505 18.1381C10.9899 18.1426 10.8333 18.1896 10.6972 18.2744C10.5611 18.3592 10.4504 18.4785 10.3765 18.6201L1.9765 36.833V1.06755C1.9765 0.830845 1.88168 0.603834 1.7129 0.436458C1.54412 0.269082 1.3152 0.175051 1.0765 0.175051C0.83781 0.175051 0.608891 0.269082 0.440109 0.436458C0.271326 0.603834 0.176505 0.830845 0.176505 1.06755V40.9326C0.176505 40.9326 0.176505 40.9742 0.176505 40.9921C0.174564 41.0257 0.174564 41.0595 0.176505 41.0932C0.176505 41.0932 0.176505 41.1468 0.176505 41.1765C0.176505 41.2063 0.176505 41.2301 0.176505 41.2598L0.218505 41.3431L0.260505 41.4145L0.314504 41.4859L0.368505 41.5514L0.434505 41.6109L0.500505 41.6644L0.590504 41.718L0.644505 41.7477L0.782505 41.7953H0.818505H0.992505H41.1925C41.4312 41.7953 41.6601 41.7013 41.8289 41.5339C41.9977 41.3665 42.0925 41.1395 42.0925 40.9028C42.0925 40.6661 41.9977 40.4391 41.8289 40.2717C41.6601 40.1043 41.4312 40.0103 41.1925 40.0103H2.4745L11.2285 21.0477L16.6285 31.3293C16.7061 31.477 16.8239 31.6002 16.9685 31.685C17.1131 31.7698 17.2788 31.8128 17.4467 31.8091C17.6146 31.8054 17.7782 31.7551 17.9188 31.664C18.0595 31.5729 18.1716 31.4446 18.2425 31.2936L25.0165 16.966L29.7025 24.8735C29.786 25.0146 29.9069 25.1302 30.0522 25.2077C30.1974 25.2852 30.3613 25.3217 30.526 25.3131C30.6908 25.3045 30.8499 25.2512 30.9861 25.159C31.1224 25.0667 31.2304 24.9392 31.2985 24.7902L41.2165 3.2155L43.2325 8.2849C43.3242 8.49917 43.4966 8.66946 43.713 8.75946C43.9295 8.84947 44.1728 8.85206 44.3912 8.76669C44.6095 8.68132 44.7856 8.51474 44.8819 8.30248C44.9781 8.09021 44.987 7.84904 44.9065 7.6304V7.6304Z" fill="#3E3E3E"/>
</g>
<defs>
<clipPath id="clip0_1_263">
<rect width="45" height="42" fill="white"/>
</clipPath>
</defs>
</svg>
