<svg width="47" height="39" viewBox="0 0 47 39" fill="none" xmlns="http://www.w3.org/2000/svg">
<g clip-path="url(#clip0_1_256)">
<path d="M41.7045 7.40221H30.8884V5.00186C30.8884 2.53796 29.279 0.533447 27.3017 0.533447H19.5424C17.5645 0.533447 15.9557 2.53796 15.9557 5.00186V7.40221H5.13794C2.53632 7.40221 0.419556 9.56922 0.419556 12.2339V33.5475C0.419556 36.2116 2.53577 38.3791 5.13794 38.3791H41.7045C44.3061 38.3791 46.4228 36.2121 46.4228 33.5475V12.2339C46.4228 9.56922 44.3061 7.40221 41.7045 7.40221ZM17.603 5.00186C17.603 3.49383 18.4909 2.22028 19.5424 2.22028H27.3017C28.3532 2.22028 29.2411 3.49383 29.2411 5.00186V7.40221H17.603V5.00186ZM44.7755 33.5475C44.7755 35.2815 43.3979 36.6923 41.7045 36.6923H5.13794C3.44453 36.6923 2.06684 35.2815 2.06684 33.5475V12.2339C2.06684 10.4998 3.44453 9.08904 5.13794 9.08904H41.7045C43.3979 9.08904 44.7755 10.4998 44.7755 12.2339V33.5475Z" fill="#3E3E3E"/>
<path d="M14.0701 24.0259C13.6149 24.0259 13.2465 24.4037 13.2465 24.8693V32.0158C13.2465 32.4814 13.6149 32.8592 14.0701 32.8592C14.5253 32.8592 14.8937 32.4814 14.8937 32.0158V24.8693C14.8937 24.4037 14.5253 24.0259 14.0701 24.0259Z" fill="#3E3E3E"/>
<path d="M19.7549 21.3011C19.2997 21.3011 18.9312 21.679 18.9312 22.1446V32.0164C18.9312 32.482 19.2997 32.8599 19.7549 32.8599C20.2101 32.8599 20.5785 32.482 20.5785 32.0164V22.1446C20.5785 21.679 20.2101 21.3011 19.7549 21.3011Z" fill="#3E3E3E"/>
<path d="M25.8515 18.7501C25.3968 18.7501 25.0278 19.1274 25.0278 19.5935V32.0159C25.0278 32.4815 25.3968 32.8593 25.8515 32.8593C26.3061 32.8593 26.6751 32.4815 26.6751 32.0159V19.5935C26.6751 19.1274 26.3061 18.7501 25.8515 18.7501Z" fill="#3E3E3E"/>
<path d="M32.2243 15.8358C31.7696 15.8358 31.4006 16.2131 31.4006 16.6792V32.0159C31.4006 32.4814 31.7696 32.8593 32.2243 32.8593C32.6789 32.8593 33.0479 32.4814 33.0479 32.0159V16.6792C33.0479 16.2131 32.6795 15.8358 32.2243 15.8358Z" fill="#3E3E3E"/>
</g>
<defs>
<clipPath id="clip0_1_256">
<rect width="47" height="39" fill="white"/>
</clipPath>
</defs>
</svg>
