<svg width="34" height="34" viewBox="0 0 34 34" fill="none" xmlns="http://www.w3.org/2000/svg">
<path d="M17 0C7.61125 0 0 7.61125 0 17C0 26.3887 7.61125 34 17 34C26.3887 34 34 26.3887 34 17C34 7.61125 26.3887 0 17 0ZM16.425 8.85819C16.5505 8.85578 16.6818 8.87508 16.7945 8.87474C16.8404 8.87439 16.8828 8.87094 16.9197 8.86164C20.9794 9.00919 24.522 12.6997 24.4482 16.7594C24.4482 17.1282 24.5957 17.7188 24.0052 17.7188C23.4146 17.7188 23.5622 17.1282 23.5622 16.6856C23.4977 16.1506 23.4098 15.651 23.2978 15.1856C23.1857 14.7202 23.0489 14.2886 22.8865 13.889C22.6424 13.2895 22.3404 12.7621 21.9747 12.3005C20.878 10.9153 19.2122 10.1213 16.8456 9.74763C16.4767 9.67385 15.9599 9.74763 15.9599 9.30463C15.9599 8.92128 16.1809 8.85784 16.425 8.85819ZM22.0122 16.9069C21.3479 16.9807 21.4955 16.3901 21.4217 16.0213C20.9787 13.4378 20.093 12.4783 17.4361 11.8878C17.0669 11.814 16.4767 11.8878 16.5505 11.2973C16.6242 10.7067 17.2148 10.9284 17.5837 11.0021C20.2409 11.2972 22.3814 13.5115 22.3814 16.0213C22.3073 16.3164 22.529 16.8331 22.0122 16.9069ZM20.3885 15.5783C20.3885 15.8734 20.3885 16.2426 19.9455 16.3164C19.6504 16.3164 19.5025 16.095 19.4287 15.7996C19.3549 14.6926 18.7644 14.1021 17.6574 13.9542C17.3623 13.8804 16.9931 13.8066 17.1407 13.3636C17.2144 13.0685 17.5095 13.0685 17.805 13.0685C19.0598 12.9951 20.3885 14.3238 20.3885 15.5783ZM24.5216 23.6977C24.0786 24.9525 22.5287 26.2071 21.2 26.2071C21.0525 26.1333 20.6832 26.1333 20.3144 25.9857C14.5571 23.4764 10.2761 19.4167 7.91428 13.5119C7.10241 11.5927 7.98806 9.89518 9.98102 9.23086C10.3499 9.08331 10.7191 9.08331 11.088 9.23086C11.9736 9.52596 14.1142 12.5525 14.1879 13.4381C14.2617 14.1762 13.7449 14.5451 13.3023 14.8405C12.4166 15.4311 12.4166 16.2429 12.7855 17.0548C13.6712 18.974 15.1473 20.2285 16.9928 21.1145C17.6571 21.4096 18.3214 21.4096 18.7641 20.6715C19.5759 19.4167 20.6091 19.4167 21.7164 20.2285C22.2332 20.5974 22.8234 20.9666 23.3402 21.4096C24.079 21.9998 24.9646 22.5166 24.5216 23.6977Z" fill="#FCFCFC"/>
</svg>
